<svg width="24" height="24" viewBox="0 0 24 24" fill="none" xmlns="http://www.w3.org/2000/svg">
<path d="M6.93945 5.001C6.93919 5.53143 6.72822 6.04004 6.35296 6.41492C5.9777 6.78981 5.46889 7.00027 4.93845 7C4.40802 6.99974 3.89942 6.78877 3.52453 6.41351C3.14965 6.03825 2.93919 5.52943 2.93945 4.999C2.93972 4.46857 3.15069 3.95996 3.52595 3.58508C3.90121 3.21019 4.41002 2.99974 4.94045 3C5.47089 3.00027 5.97949 3.21123 6.35437 3.58649C6.72926 3.96175 6.93972 4.47057 6.93945 5.001ZM6.99945 8.481H2.99945V21.001H6.99945V8.481ZM13.3195 8.481H9.33945V21.001H13.2795V14.431C13.2795 10.771 18.0495 10.431 18.0495 14.431V21.001H21.9995V13.071C21.9995 6.901 14.9395 7.131 13.2795 10.161L13.3195 8.481Z" fill="#27272A"/>
</svg>
