<svg width="50" height="36" viewBox="0 0 50 36" fill="none" xmlns="http://www.w3.org/2000/svg">
<path d="M5.776 33.192C5.17867 33.192 4.624 33.0853 4.112 32.872C3.61067 32.648 3.20533 32.3227 2.896 31.896L3.12 31.4V33H0.88V20.888H3.28V25.928L2.912 25.448C3.2 25.0107 3.58933 24.6747 4.08 24.44C4.58133 24.1947 5.152 24.072 5.792 24.072C6.624 24.072 7.376 24.2747 8.048 24.68C8.72 25.0853 9.25333 25.6347 9.648 26.328C10.0427 27.0107 10.24 27.7787 10.24 28.632C10.24 29.4747 10.0427 30.2427 9.648 30.936C9.264 31.6293 8.736 32.1787 8.064 32.584C7.392 32.9893 6.62933 33.192 5.776 33.192ZM5.488 31.032C5.936 31.032 6.33067 30.9307 6.672 30.728C7.01333 30.5253 7.28 30.2427 7.472 29.88C7.664 29.5173 7.76 29.1013 7.76 28.632C7.76 28.1627 7.664 27.752 7.472 27.4C7.28 27.0373 7.01333 26.7547 6.672 26.552C6.33067 26.3387 5.936 26.232 5.488 26.232C5.06133 26.232 4.67733 26.3333 4.336 26.536C4.00533 26.7387 3.744 27.0213 3.552 27.384C3.37067 27.7467 3.28 28.1627 3.28 28.632C3.28 29.1013 3.37067 29.5173 3.552 29.88C3.744 30.2427 4.00533 30.5253 4.336 30.728C4.67733 30.9307 5.06133 31.032 5.488 31.032ZM14.3496 33.192C13.7203 33.192 13.1763 33.0907 12.7176 32.888C12.259 32.6853 11.907 32.3973 11.6616 32.024C11.4163 31.64 11.2936 31.1867 11.2936 30.664C11.2936 30.1733 11.4056 29.7413 11.6296 29.368C11.8536 28.984 12.195 28.664 12.6536 28.408C13.123 28.152 13.7043 27.9707 14.3976 27.864L17.0696 27.432V29.192L14.8296 29.592C14.4883 29.656 14.227 29.768 14.0456 29.928C13.8643 30.0773 13.7736 30.296 13.7736 30.584C13.7736 30.8507 13.875 31.0587 14.0776 31.208C14.2803 31.3573 14.531 31.432 14.8296 31.432C15.2243 31.432 15.571 31.3467 15.8696 31.176C16.1683 31.0053 16.3976 30.776 16.5576 30.488C16.7283 30.1893 16.8136 29.864 16.8136 29.512V27.24C16.8136 26.9093 16.6803 26.632 16.4136 26.408C16.1576 26.184 15.8056 26.072 15.3576 26.072C14.931 26.072 14.5523 26.1893 14.2216 26.424C13.9016 26.6587 13.667 26.968 13.5176 27.352L11.5976 26.44C11.7683 25.9493 12.0403 25.528 12.4136 25.176C12.787 24.824 13.235 24.552 13.7576 24.36C14.2803 24.168 14.851 24.072 15.4696 24.072C16.2056 24.072 16.8563 24.2053 17.4216 24.472C17.987 24.7387 18.4243 25.112 18.7336 25.592C19.0536 26.0613 19.2136 26.6107 19.2136 27.24V33H16.9736V31.592L17.5176 31.496C17.2616 31.88 16.979 32.2 16.6696 32.456C16.3603 32.7013 16.0136 32.8827 15.6296 33C15.2456 33.128 14.819 33.192 14.3496 33.192ZM20.9738 33V24.264H23.2138V25.992L23.0858 25.608C23.2884 25.0853 23.6138 24.7013 24.0618 24.456C24.5204 24.2 25.0538 24.072 25.6618 24.072C26.3231 24.072 26.8991 24.2107 27.3898 24.488C27.8911 24.7653 28.2804 25.1547 28.5578 25.656C28.8351 26.1467 28.9738 26.7227 28.9738 27.384V33H26.5738V27.896C26.5738 27.5547 26.5044 27.2613 26.3658 27.016C26.2378 26.7707 26.0511 26.5787 25.8058 26.44C25.5711 26.3013 25.2938 26.232 24.9738 26.232C24.6644 26.232 24.3871 26.3013 24.1418 26.44C23.8964 26.5787 23.7044 26.7707 23.5658 27.016C23.4378 27.2613 23.3738 27.5547 23.3738 27.896V33H20.9738ZM34.6639 33.192C33.8105 33.192 33.0479 32.9893 32.3759 32.584C31.7039 32.1787 31.1705 31.6293 30.7759 30.936C30.3919 30.2427 30.1999 29.4747 30.1999 28.632C30.1999 27.7787 30.3972 27.0107 30.7919 26.328C31.1865 25.6347 31.7199 25.0853 32.3919 24.68C33.0639 24.2747 33.8159 24.072 34.6479 24.072C35.2879 24.072 35.8532 24.1947 36.3439 24.44C36.8452 24.6747 37.2399 25.0107 37.5279 25.448L37.1599 25.928V20.888H39.5599V33H37.3199V31.4L37.5439 31.896C37.2452 32.3227 36.8399 32.648 36.3279 32.872C35.8159 33.0853 35.2612 33.192 34.6639 33.192ZM34.9519 31.032C35.3892 31.032 35.7732 30.9307 36.1039 30.728C36.4345 30.5253 36.6905 30.2427 36.8719 29.88C37.0639 29.5173 37.1599 29.1013 37.1599 28.632C37.1599 28.1627 37.0639 27.7467 36.8719 27.384C36.6905 27.0213 36.4345 26.7387 36.1039 26.536C35.7732 26.3333 35.3892 26.232 34.9519 26.232C34.5145 26.232 34.1199 26.3387 33.7679 26.552C33.4265 26.7547 33.1599 27.0373 32.9679 27.4C32.7759 27.752 32.6799 28.1627 32.6799 28.632C32.6799 29.1013 32.7759 29.5173 32.9679 29.88C33.1599 30.2427 33.4265 30.5253 33.7679 30.728C34.1199 30.9307 34.5145 31.032 34.9519 31.032ZM44.0215 33.192C43.3922 33.192 42.8482 33.0907 42.3895 32.888C41.9308 32.6853 41.5788 32.3973 41.3335 32.024C41.0882 31.64 40.9655 31.1867 40.9655 30.664C40.9655 30.1733 41.0775 29.7413 41.3015 29.368C41.5255 28.984 41.8668 28.664 42.3255 28.408C42.7948 28.152 43.3762 27.9707 44.0695 27.864L46.7415 27.432V29.192L44.5015 29.592C44.1602 29.656 43.8988 29.768 43.7175 29.928C43.5362 30.0773 43.4455 30.296 43.4455 30.584C43.4455 30.8507 43.5468 31.0587 43.7495 31.208C43.9522 31.3573 44.2028 31.432 44.5015 31.432C44.8962 31.432 45.2428 31.3467 45.5415 31.176C45.8402 31.0053 46.0695 30.776 46.2295 30.488C46.4002 30.1893 46.4855 29.864 46.4855 29.512V27.24C46.4855 26.9093 46.3522 26.632 46.0855 26.408C45.8295 26.184 45.4775 26.072 45.0295 26.072C44.6028 26.072 44.2242 26.1893 43.8935 26.424C43.5735 26.6587 43.3388 26.968 43.1895 27.352L41.2695 26.44C41.4402 25.9493 41.7122 25.528 42.0855 25.176C42.4588 24.824 42.9068 24.552 43.4295 24.36C43.9522 24.168 44.5228 24.072 45.1415 24.072C45.8775 24.072 46.5282 24.2053 47.0935 24.472C47.6588 24.7387 48.0962 25.112 48.4055 25.592C48.7255 26.0613 48.8855 26.6107 48.8855 27.24V33H46.6455V31.592L47.1895 31.496C46.9335 31.88 46.6508 32.2 46.3415 32.456C46.0322 32.7013 45.6855 32.8827 45.3015 33C44.9175 33.128 44.4908 33.192 44.0215 33.192Z" fill="#18181B"/>
<path d="M5.39525 17.1907C4.64858 17.1907 3.94458 17.0574 3.28325 16.7907C2.63258 16.5134 2.06725 16.1241 1.58725 15.6227C1.11792 15.1214 0.765917 14.5294 0.53125 13.8467L2.56325 12.9347C2.86192 13.5854 3.27258 14.0974 3.79525 14.4707C4.32858 14.8441 4.91525 15.0307 5.55525 15.0307C5.89658 15.0307 6.18992 14.9774 6.43525 14.8707C6.68058 14.7641 6.87258 14.6201 7.01125 14.4387C7.14992 14.2467 7.21925 14.0227 7.21925 13.7667C7.21925 13.4894 7.13392 13.2547 6.96325 13.0627C6.79258 12.8601 6.52592 12.7001 6.16325 12.5827L3.82725 11.8147C2.87792 11.5054 2.16325 11.0681 1.68325 10.5027C1.20325 9.92672 0.96325 9.23872 0.96325 8.43872C0.96325 7.73472 1.13392 7.11605 1.47525 6.58272C1.82725 6.04939 2.31258 5.63339 2.93125 5.33472C3.56058 5.03605 4.28058 4.88672 5.09125 4.88672C5.80592 4.88672 6.46725 5.00939 7.07525 5.25472C7.68325 5.50005 8.20592 5.84672 8.64325 6.29472C9.09125 6.74272 9.42725 7.28139 9.65125 7.91072L7.63525 8.82272C7.41125 8.26805 7.07525 7.83605 6.62725 7.52672C6.17925 7.20672 5.66725 7.04672 5.09125 7.04672C4.76058 7.04672 4.46725 7.10005 4.21125 7.20672C3.95525 7.31339 3.75792 7.46805 3.61925 7.67072C3.48058 7.86272 3.41125 8.08672 3.41125 8.34272C3.41125 8.62005 3.50192 8.86539 3.68325 9.07872C3.86458 9.28139 4.13658 9.44139 4.49925 9.55872L6.78725 10.2947C7.74725 10.6041 8.46192 11.0361 8.93125 11.5907C9.41125 12.1454 9.65125 12.8227 9.65125 13.6227C9.65125 14.3161 9.46992 14.9347 9.10725 15.4787C8.74458 16.0121 8.24325 16.4334 7.60325 16.7427C6.97392 17.0414 6.23792 17.1907 5.39525 17.1907Z" fill="#18181B"/>
<path d="M11.4186 16.9987V5.07872H19.4346V7.23872H11.4186V9.94272V12.1027V14.8387H19.4346V16.9987H11.4186Z" fill="#18181B"/>
<path fill-rule="evenodd" clip-rule="evenodd" d="M24.3158 16.7306C25.0837 17.04 25.9158 17.1946 26.8118 17.1946C27.7078 17.1946 28.5398 17.04 29.3078 16.7306C30.0758 16.4213 30.7424 15.9893 31.3078 15.4346C31.8838 14.8693 32.3317 14.2133 32.6517 13.4666C32.9717 12.72 33.1318 11.9093 33.1318 11.0346C33.1318 10.16 32.9717 9.34929 32.6517 8.60262C32.3424 7.85596 31.8997 7.20529 31.3237 6.65063C30.7584 6.09596 30.0917 5.66396 29.3237 5.35462C28.5557 5.04529 27.7184 4.89062 26.8118 4.89062C25.9051 4.89062 25.0677 5.04529 24.2997 5.35462C23.5317 5.66396 22.8598 6.09596 22.2838 6.65063C21.7184 7.20529 21.2757 7.85596 20.9557 8.60262C20.779 9.02929 20.6527 9.47685 20.577 9.94531H11.4219V12.1053H20.5768C20.6548 12.5805 20.7865 13.0343 20.9718 13.4666C21.2917 14.2133 21.7344 14.8693 22.2997 15.4346C22.8757 15.9893 23.5478 16.4213 24.3158 16.7306ZM28.3158 14.6666C27.8571 14.8586 27.3558 14.9546 26.8118 14.9546C26.2678 14.9546 25.7611 14.8586 25.2917 14.6666C24.8331 14.4746 24.4278 14.208 24.0758 13.8666C23.7238 13.5146 23.4518 13.0986 23.2598 12.6186C23.0678 12.1386 22.9718 11.6106 22.9718 11.0346C22.9718 10.4586 23.0678 9.93596 23.2598 9.46663C23.4518 8.98663 23.7238 8.57063 24.0758 8.21863C24.4278 7.86663 24.8331 7.59996 25.2917 7.41862C25.7611 7.22662 26.2678 7.13062 26.8118 7.13062C27.3558 7.13062 27.8571 7.22662 28.3158 7.41862C28.7851 7.59996 29.1958 7.86663 29.5478 8.21863C29.8997 8.57063 30.1718 8.98663 30.3638 9.46663C30.5557 9.93596 30.6518 10.4586 30.6518 11.0346C30.6518 11.6106 30.5557 12.1386 30.3638 12.6186C30.1718 13.0986 29.8997 13.5146 29.5478 13.8666C29.1958 14.208 28.7851 14.4746 28.3158 14.6666Z" fill="url(#paint0_linear_1_234)"/>
<defs>
<linearGradient id="paint0_linear_1_234" x1="11.0001" y1="11.0024" x2="32.9968" y2="11.0024" gradientUnits="userSpaceOnUse">
<stop stop-color="#6DDBFF"/>
<stop offset="1" stop-color="#7F60F9"/>
</linearGradient>
</defs>
</svg>
