<svg width="72" height="72" viewBox="0 0 72 72" fill="none" xmlns="http://www.w3.org/2000/svg">
<path fill-rule="evenodd" clip-rule="evenodd" d="M43.7337 37.0863C43.2869 35.8188 42.4595 34.7213 41.3653 33.9451C40.2711 33.1689 38.964 32.7521 37.624 32.7521V31.127H34.3845V32.7521C32.6662 32.7521 31.0182 33.437 29.8032 34.6561C28.5881 35.8751 27.9055 37.5286 27.9055 39.2526C27.9055 40.9767 28.5881 42.6301 29.8032 43.8492C31.0182 45.0683 32.6662 45.7532 34.3845 45.7532V52.2537C32.9753 52.2537 31.7751 51.3518 31.328 50.0874C31.2617 49.8806 31.1547 49.6891 31.0134 49.5245C30.872 49.3599 30.6992 49.2253 30.5052 49.1289C30.3111 49.0324 30.0997 48.976 29.8835 48.9629C29.6673 48.9498 29.4507 48.9804 29.2465 49.0528C29.0423 49.1252 28.8547 49.2379 28.6946 49.3844C28.5346 49.5308 28.4055 49.7079 28.3149 49.9053C28.2243 50.1027 28.1741 50.3163 28.1672 50.5334C28.1603 50.7506 28.1969 50.967 28.2748 51.1697C28.7216 52.4373 29.5491 53.5347 30.6432 54.3109C31.7374 55.0872 33.0445 55.504 34.3845 55.504V57.1291H37.624V55.504C39.3423 55.504 40.9903 54.8191 42.2053 53.6C43.4204 52.3809 44.103 50.7275 44.103 49.0034C44.103 47.2794 43.4204 45.626 42.2053 44.4069C40.9903 43.1878 39.3423 42.5029 37.624 42.5029V36.0024C38.294 36.0022 38.9475 36.2104 39.4946 36.5984C40.0417 36.9864 40.4554 37.535 40.6789 38.1687C40.8219 38.5751 41.12 38.9079 41.5076 39.0938C41.6995 39.1859 41.9077 39.2391 42.1201 39.2504C42.3325 39.2618 42.5451 39.2311 42.7457 39.16C42.9462 39.0889 43.1309 38.9789 43.2891 38.8362C43.4473 38.6936 43.576 38.521 43.6677 38.3285C43.7595 38.1359 43.8125 37.9271 43.8238 37.714C43.8352 37.5009 43.8045 37.2876 43.7337 37.0863ZM34.3845 36.0024C33.5253 36.0024 32.7014 36.3448 32.0938 36.9543C31.4863 37.5639 31.145 38.3906 31.145 39.2526C31.145 40.1147 31.4863 40.9414 32.0938 41.5509C32.7014 42.1605 33.5253 42.5029 34.3845 42.5029V36.0024ZM37.624 52.2537C38.4832 52.2537 39.3072 51.9113 39.9147 51.3017C40.5222 50.6922 40.8635 49.8655 40.8635 49.0034C40.8635 48.1414 40.5222 47.3147 39.9147 46.7052C39.3072 46.0956 38.4832 45.7532 37.624 45.7532V52.2537Z" fill="url(#paint0_linear_1_2541)"/>
<path fill-rule="evenodd" clip-rule="evenodd" d="M18.4348 11.0095C22.4097 9.05769 28.9308 6.75 36.0674 6.75C43.055 6.75 49.4044 8.96181 53.3582 10.8876L53.5817 10.9965C54.7739 11.588 55.736 12.1471 56.413 12.6005L50.4297 21.3762C64.2235 35.5246 74.8782 65.25 36.0674 65.25C-2.74341 65.25 7.6246 36.0642 21.5382 21.3762L15.5938 12.6005C16.0522 12.2998 16.6336 11.9504 17.3269 11.5799C17.6703 11.3946 18.0396 11.2029 18.4348 11.0095ZM46.5844 21.2608L51.374 14.2354C46.9197 14.5571 41.6199 15.607 36.5177 17.0891C32.8732 18.1454 28.8239 17.9846 25.0741 17.2906C24.1292 17.1149 23.1908 16.9056 22.2606 16.6633L25.3706 21.2576C32.0358 23.6384 39.9175 23.6384 46.5844 21.2608ZM23.4998 24.0252C31.2988 27.0479 40.6723 27.0479 48.4714 24.0219C51.7269 27.4651 54.4502 31.3779 56.5507 35.6303C58.7406 40.1124 59.9328 44.5929 59.7384 48.4542C59.5505 52.1807 58.0895 55.3643 54.7528 57.7305C51.2752 60.1958 45.4263 61.9997 36.0658 61.9997C26.6955 61.9997 20.8191 60.2267 17.3091 57.789C13.9481 55.4537 12.4725 52.3123 12.2636 48.6362C12.0449 44.8172 13.2111 40.3594 15.3929 35.8464C17.4743 31.5431 20.3785 27.4006 23.4998 24.0252ZM21.637 13.114C22.9328 13.5008 24.287 13.8372 25.6605 14.0924C29.143 14.7359 32.6351 14.8302 35.6155 13.964C39.0886 12.9488 42.621 12.1504 46.1924 11.5734C43.2121 10.6731 39.7264 10.0003 36.0658 10.0003C30.4857 10.0003 25.2815 11.562 21.637 13.114Z" fill="url(#paint1_linear_1_2541)"/>
<defs>
<linearGradient id="paint0_linear_1_2541" x1="27.9055" y1="44.128" x2="44.103" y2="44.128" gradientUnits="userSpaceOnUse">
<stop stop-color="#6DDCFF"/>
<stop offset="0.890625" stop-color="#7F60F9"/>
</linearGradient>
<linearGradient id="paint1_linear_1_2541" x1="9" y1="36" x2="63" y2="36" gradientUnits="userSpaceOnUse">
<stop stop-color="#6DDCFF"/>
<stop offset="0.890625" stop-color="#7F60F9"/>
</linearGradient>
</defs>
</svg>
