<svg width="72" height="72" viewBox="0 0 72 72" fill="none" xmlns="http://www.w3.org/2000/svg">
<path d="M36 6.75C30.2149 6.75 24.5597 8.46548 19.7496 11.6795C14.9394 14.8935 11.1904 19.4618 8.97654 24.8065C6.76267 30.1512 6.18343 36.0324 7.31204 41.7064C8.44066 47.3803 11.2265 52.5922 15.3171 56.6829C19.4078 60.7736 24.6197 63.5593 30.2936 64.688C35.9676 65.8166 41.8488 65.2373 47.1935 63.0235C52.5382 60.8096 57.1065 57.0606 60.3205 52.2504C63.5345 47.4403 65.25 41.7851 65.25 36C65.2418 28.2449 62.1575 20.8098 56.6738 15.3262C51.1902 9.84251 43.7551 6.75819 36 6.75ZM36 60.75C31.1049 60.75 26.3198 59.2984 22.2496 56.5789C18.1795 53.8593 15.0073 49.9939 13.134 45.4714C11.2607 40.9489 10.7706 35.9725 11.7256 31.1715C12.6806 26.3705 15.0378 21.9605 18.4991 18.4991C21.9605 15.0378 26.3705 12.6805 31.1715 11.7256C35.9726 10.7706 40.949 11.2607 45.4714 13.134C49.9939 15.0073 53.8593 18.1795 56.5789 22.2496C59.2985 26.3198 60.75 31.1049 60.75 36C60.7426 42.5618 58.1326 48.8528 53.4927 53.4927C48.8528 58.1326 42.5618 60.7426 36 60.75ZM54 36C54 36.5967 53.763 37.169 53.341 37.591C52.919 38.0129 52.3467 38.25 51.75 38.25H36C35.4033 38.25 34.831 38.0129 34.409 37.591C33.9871 37.169 33.75 36.5967 33.75 36V20.25C33.75 19.6533 33.9871 19.081 34.409 18.659C34.831 18.2371 35.4033 18 36 18C36.5968 18 37.169 18.2371 37.591 18.659C38.013 19.081 38.25 19.6533 38.25 20.25V33.75H51.75C52.3467 33.75 52.919 33.9871 53.341 34.409C53.763 34.831 54 35.4033 54 36Z" fill="url(#paint0_linear_1_2531)"/>
<defs>
<linearGradient id="paint0_linear_1_2531" x1="6.75" y1="36" x2="65.25" y2="36" gradientUnits="userSpaceOnUse">
<stop stop-color="#6DDCFF"/>
<stop offset="0.890625" stop-color="#7F60F9"/>
</linearGradient>
</defs>
</svg>
