<svg width="24" height="24" viewBox="0 0 24 24" fill="none" xmlns="http://www.w3.org/2000/svg">
<g clip-path="url(#clip0_1_1131)">
<path d="M6.27274 19.3378V11.224L3.75643 8.922L1.5 7.64453V17.9059C1.5 18.6982 2.14189 19.3378 2.93186 19.3378H6.27274Z" fill="#27272A"/>
<path d="M17.7285 19.3377H21.0694C21.8617 19.3377 22.5013 18.6957 22.5013 17.9058V7.64453L19.9455 9.10772L17.7285 11.224V19.3377Z" fill="#27272A"/>
<path d="M6.27306 11.224L5.93066 8.05379L6.27306 5.01953L12.0003 9.31502L17.7276 5.01953L18.1106 7.88997L17.7276 11.224L12.0003 15.5195L6.27306 11.224Z" fill="#27272A"/>
<path d="M17.7285 5.01983V11.2243L22.5013 7.64483V5.73572C22.5013 3.96508 20.48 2.95568 19.065 4.01758L17.7285 5.01983Z" fill="#27272A"/>
<path d="M1.5 7.64487L3.69507 9.29124L6.27274 11.2244V5.01987L4.93629 4.01761C3.51879 2.95564 1.5 3.96511 1.5 5.73568V7.64479V7.64487Z" fill="#27272A"/>
</g>
<defs>
<clipPath id="clip0_1_1131">
<rect width="21" height="15.832" fill="white" transform="translate(1.5 3.58398)"/>
</clipPath>
</defs>
</svg>
