<svg width="72" height="72" viewBox="0 0 72 72" fill="none" xmlns="http://www.w3.org/2000/svg">
<path d="M36.9224 9.02702C36.5974 9.0267 36.2761 9.09695 35.9809 9.23291C35.6857 9.36888 35.4235 9.56732 35.2124 9.81452L34.9874 9.97652C28.2149 7.98752 20.5334 9.52652 15.1739 14.598C10.4174 19.0935 8.59942 25.3125 9.71542 31.131L9.64792 31.194L6.62842 34.0515C6.01322 34.6191 5.52224 35.308 5.18643 36.0747C4.85061 36.8415 4.67725 37.6695 4.67725 38.5065C4.67725 39.3436 4.85061 40.1716 5.18643 40.9383C5.52224 41.705 6.01322 42.3939 6.62842 42.9615C8.16742 44.424 10.2824 45.018 12.2849 44.7435C12.5729 45.792 13.1534 46.7865 14.0219 47.61C15.1964 48.7215 16.7039 49.329 18.2429 49.437C18.3554 50.8905 18.9989 52.317 20.1779 53.4285C21.3479 54.54 22.8554 55.1475 24.3944 55.2555C24.5069 56.709 25.1504 58.1355 26.3294 59.247C27.5031 60.3317 29.0146 60.9789 30.6096 61.0797C32.2045 61.1805 33.7855 60.7288 35.0864 59.8005L36.5714 61.2045C39.1814 63.6795 43.4249 63.6795 46.0394 61.2045C47.2094 60.093 47.8574 58.68 47.9744 57.231C49.5044 57.1185 50.9984 56.511 52.1684 55.404C53.3384 54.297 53.9864 52.8795 54.1034 51.4305C55.6109 51.309 57.0824 50.7015 58.2434 49.608C59.1479 48.7485 59.7419 47.7 60.0119 46.5975C61.9919 46.836 64.0574 46.2375 65.5739 44.8065C66.1891 44.2389 66.6801 43.55 67.0159 42.7833C67.3517 42.0166 67.5251 41.1886 67.5251 40.3515C67.5251 39.5145 67.3517 38.6865 67.0159 37.9197C66.6801 37.153 66.1891 36.4641 65.5739 35.8965L62.9009 33.3675L63.4094 31.4775C64.5887 27.0988 63.992 22.4316 61.7489 18.4905C58.4414 12.6315 52.0379 9.04052 45.1439 9.04052H40.5584C40.3516 9.03099 40.1445 9.02649 39.9374 9.02702H36.9224ZM56.5964 33.5835L58.7834 35.7435C58.9198 35.8763 59.0726 35.9912 59.2379 36.0855L62.3024 38.9835C62.4909 39.1571 62.6413 39.368 62.7442 39.6026C62.847 39.8373 62.9002 40.0908 62.9002 40.347C62.9002 40.6033 62.847 40.8567 62.7442 41.0914C62.6413 41.3261 62.4909 41.5369 62.3024 41.7105C61.9102 42.0723 61.3961 42.2732 60.8624 42.2732C60.3288 42.2732 59.8147 42.0723 59.4224 41.7105L54.2924 36.864C53.8476 36.4532 53.2644 36.2251 52.6589 36.2251C52.0534 36.2251 51.4702 36.4532 51.0254 36.864L50.9714 36.909C50.7588 37.1069 50.5893 37.3465 50.4733 37.6129C50.3574 37.8792 50.2976 38.1665 50.2976 38.457C50.2976 38.7475 50.3574 39.0348 50.4733 39.3012C50.5893 39.5675 50.7588 39.8071 50.9714 40.005L54.9719 43.785C55.1598 43.959 55.3096 44.1699 55.4121 44.4046C55.5146 44.6392 55.5675 44.8925 55.5675 45.1485C55.5675 45.4046 55.5146 45.6578 55.4121 45.8925C55.3096 46.1271 55.1598 46.338 54.9719 46.512C54.6147 46.8426 54.155 47.0407 53.6695 47.0735C53.1839 47.1062 52.7018 46.9716 52.3034 46.692C51.8505 46.3721 51.3011 46.218 50.7479 46.2557C50.1946 46.2934 49.6713 46.5206 49.2659 46.899C48.8739 47.264 48.6361 47.7648 48.6009 48.2993C48.5658 48.8337 48.7361 49.3614 49.0769 49.7745C49.3763 50.1407 49.5245 50.6075 49.491 51.0793C49.4576 51.5511 49.245 51.9923 48.8969 52.3125C48.5349 52.6476 48.0676 52.8465 47.5752 52.8752C47.0827 52.904 46.5955 52.7607 46.1969 52.47C45.747 52.1401 45.1965 51.9763 44.6394 52.0067C44.0823 52.0371 43.5529 52.2596 43.1414 52.6365C42.743 53.001 42.5001 53.5049 42.4633 54.0436C42.4264 54.5824 42.5983 55.1147 42.9434 55.53C43.5734 56.295 43.5149 57.4065 42.7679 58.113C42.3692 58.4799 41.8472 58.6835 41.3054 58.6835C40.7636 58.6835 40.2416 58.4799 39.8429 58.113L38.3939 56.745L38.7719 56.3895C39.3871 55.8219 39.8781 55.133 40.2139 54.3663C40.5497 53.5996 40.7231 52.7716 40.7231 51.9345C40.7231 51.0975 40.5497 50.2695 40.2139 49.5027C39.8781 48.736 39.3871 48.0471 38.7719 47.4795C37.6194 46.3993 36.1273 45.7534 34.5509 45.6525C34.4265 44.1272 33.7363 42.7035 32.6159 41.661C31.4651 40.5805 29.9747 39.9331 28.3994 39.8295C28.275 38.3042 27.5848 36.8805 26.4644 35.838C25.7136 35.1388 24.8162 34.616 23.8376 34.3077C22.859 33.9994 21.824 33.9134 20.8079 34.056C20.5025 32.9607 19.9016 31.9706 19.0709 31.194C18.4077 30.5734 17.6278 30.0907 16.7765 29.774C15.9252 29.4573 15.0195 29.3128 14.1119 29.349C13.87 27.2023 14.1357 25.0288 14.8876 23.0036C15.6395 20.9784 16.8567 19.1582 18.4409 17.6895C19.9907 16.2423 21.8201 15.1272 23.8167 14.413C25.8133 13.6987 27.9348 13.4003 30.0509 13.536L25.1234 17.091C24.3672 17.6279 23.7295 18.3144 23.2497 19.108C22.7698 19.9016 22.4582 20.7853 22.3342 21.7043C22.2101 22.6233 22.2763 23.558 22.5285 24.4504C22.7807 25.3429 23.2136 26.1739 23.8004 26.892C24.984 28.3419 26.6743 29.2878 28.529 29.5385C30.3838 29.7891 32.2645 29.3257 33.7904 28.242L39.8519 23.877H46.3319L56.5964 33.5835ZM27.7559 20.736L37.7594 13.527H39.9419C40.1295 13.5251 40.3171 13.5296 40.5044 13.5405H45.1394C50.5034 13.5405 55.3634 16.3305 57.8294 20.7045C59.4179 23.508 59.8904 26.7345 59.1884 29.8215L49.2299 20.0205C48.8094 19.6081 48.2439 19.3771 47.6549 19.377H39.1184C38.6469 19.3769 38.1873 19.5248 37.8044 19.8L31.1624 24.5925C30.5708 25.0036 29.8466 25.1781 29.1327 25.0814C28.4187 24.9848 27.767 24.6241 27.3059 24.0705C27.1027 23.8282 26.9523 23.546 26.8644 23.2422C26.7765 22.9384 26.7529 22.6196 26.7953 22.3061C26.8376 21.9927 26.945 21.6915 27.1104 21.4219C27.2758 21.1523 27.4957 20.9203 27.7559 20.7405M32.6249 50.571C33.0178 50.2098 33.5322 50.0098 34.0658 50.0106C34.5994 50.0114 35.1132 50.2131 35.5049 50.5755C35.6934 50.7491 35.8438 50.96 35.9467 51.1946C36.0495 51.4293 36.1027 51.6828 36.1027 51.939C36.1027 52.1953 36.0495 52.4487 35.9467 52.6834C35.8438 52.9181 35.6934 53.1289 35.5049 53.3025L32.4809 56.16C32.0886 56.5218 31.5746 56.7227 31.0409 56.7227C30.5073 56.7227 29.9932 56.5218 29.6009 56.16C29.4125 55.9864 29.2621 55.7756 29.1592 55.5409C29.0563 55.3062 29.0032 55.0528 29.0032 54.7965C29.0032 54.5403 29.0563 54.2868 29.1592 54.0521C29.2621 53.8175 29.4125 53.6066 29.6009 53.433L32.6249 50.571ZM29.3579 47.475L26.3294 50.3415C25.9369 50.7046 25.4219 50.9063 24.8872 50.9063C24.3525 50.9063 23.8375 50.7046 23.4449 50.3415C23.2607 50.1715 23.1128 49.9658 23.0103 49.737C22.9078 49.5081 22.8528 49.2609 22.8486 49.0101C22.8443 48.7594 22.891 48.5105 22.9858 48.2783C23.0806 48.0462 23.2215 47.8357 23.3999 47.6595L23.4449 47.6145L26.4644 44.757L26.5094 44.712C26.9048 44.3678 27.4136 44.1819 27.9378 44.1902C28.462 44.1985 28.9646 44.4004 29.3489 44.757C29.5365 44.9299 29.6864 45.1397 29.7892 45.3732C29.892 45.6067 29.9455 45.8589 29.9463 46.1141C29.9471 46.3692 29.8953 46.6217 29.7941 46.8559C29.6928 47.0901 29.5444 47.3009 29.3579 47.475ZM23.1929 41.6655L20.1779 44.5185L20.1284 44.5635C19.7333 44.9065 19.2255 45.0916 18.7023 45.0833C18.1791 45.075 17.6775 44.8739 17.2934 44.5185C17.105 44.3449 16.9546 44.1341 16.8517 43.8994C16.7488 43.6647 16.6957 43.4113 16.6957 43.155C16.6957 42.8988 16.7488 42.6453 16.8517 42.4106C16.9546 42.176 17.105 41.9651 17.2934 41.7915L20.3084 38.9385C20.7012 38.5742 21.2172 38.3717 21.7529 38.3717C22.2887 38.3717 22.8046 38.5742 23.1974 38.9385C23.3817 39.1086 23.5296 39.3142 23.6321 39.5431C23.7346 39.7719 23.7896 40.0192 23.7938 40.2699C23.798 40.5206 23.7513 40.7696 23.6565 41.0017C23.5618 41.2339 23.4209 41.4444 23.2424 41.6205L23.1929 41.6655ZM15.8039 37.0125L12.7844 39.87C12.3921 40.2318 11.8781 40.4327 11.3444 40.4327C10.8108 40.4327 10.2967 40.2318 9.90442 39.87C9.71597 39.6964 9.56556 39.4856 9.46268 39.2509C9.3598 39.0162 9.30668 38.7628 9.30668 38.5065C9.30668 38.2503 9.3598 37.9968 9.46268 37.7621C9.56556 37.5275 9.71597 37.3166 9.90442 37.143L12.9194 34.2855C13.312 33.9224 13.827 33.7208 14.3617 33.7208C14.8964 33.7208 15.4114 33.9224 15.8039 34.2855C15.9924 34.4591 16.1428 34.67 16.2457 34.9046C16.3485 35.1393 16.4017 35.3928 16.4017 35.649C16.4017 35.9053 16.3485 36.1587 16.2457 36.3934C16.1428 36.6281 15.9924 36.8389 15.8039 37.0125Z" fill="url(#paint0_linear_1_2533)"/>
<defs>
<linearGradient id="paint0_linear_1_2533" x1="4.67725" y1="36.0439" x2="67.5251" y2="36.0439" gradientUnits="userSpaceOnUse">
<stop stop-color="#6DDCFF"/>
<stop offset="0.890625" stop-color="#7F60F9"/>
</linearGradient>
</defs>
</svg>
