<svg width="72" height="72" viewBox="0 0 72 72" fill="none" xmlns="http://www.w3.org/2000/svg">
<path d="M50.4 9.89995C50.4 9.18387 50.6845 8.49711 51.1908 7.99076C51.6972 7.48441 52.3839 7.19995 53.1 7.19995H62.1C62.8161 7.19995 63.5029 7.48441 64.0092 7.99076C64.5156 8.49711 64.8 9.18387 64.8 9.89995V18.9C64.8 19.616 64.5156 20.3028 64.0092 20.8091C63.5029 21.3155 62.8161 21.6 62.1 21.6C61.3839 21.6 60.6972 21.3155 60.1908 20.8091C59.6845 20.3028 59.4 19.616 59.4 18.9V16.416L43.308 32.508C42.8018 33.0136 42.1155 33.2976 41.4 33.2976C40.6845 33.2976 39.9983 33.0136 39.492 32.508L30.6 23.616L15.408 38.808C15.1608 39.0732 14.8628 39.286 14.5316 39.4336C14.2004 39.5811 13.8428 39.6605 13.4803 39.6669C13.1178 39.6733 12.7577 39.6066 12.4215 39.4708C12.0853 39.335 11.7799 39.1329 11.5235 38.8765C11.2671 38.6201 11.065 38.3147 10.9292 37.9785C10.7934 37.6423 10.7267 37.2822 10.7331 36.9197C10.7395 36.5571 10.8188 36.1996 10.9664 35.8684C11.114 35.5372 11.3267 35.2391 11.592 34.992L28.692 17.892C29.1983 17.3863 29.8845 17.1023 30.6 17.1023C31.3155 17.1023 32.0018 17.3863 32.508 17.892L41.4 26.784L55.584 12.6H53.1C52.3839 12.6 51.6972 12.3155 51.1908 11.8091C50.6845 11.3028 50.4 10.616 50.4 9.89995ZM13.5 50.4C14.2161 50.4 14.9029 50.6844 15.4092 51.1908C15.9156 51.6971 16.2 52.3839 16.2 53.1V62.1C16.2 62.816 15.9156 63.5028 15.4092 64.0092C14.9029 64.5155 14.2161 64.8 13.5 64.8C12.7839 64.8 12.0972 64.5155 11.5908 64.0092C11.0845 63.5028 10.8 62.816 10.8 62.1V53.1C10.8 52.3839 11.0845 51.6971 11.5908 51.1908C12.0972 50.6844 12.7839 50.4 13.5 50.4ZM30.6 42.3C30.6 41.5839 30.3156 40.8971 29.8092 40.3908C29.3029 39.8844 28.6161 39.6 27.9 39.6C27.1839 39.6 26.4972 39.8844 25.9908 40.3908C25.4845 40.8971 25.2 41.5839 25.2 42.3V62.1C25.2 62.816 25.4845 63.5028 25.9908 64.0092C26.4972 64.5155 27.1839 64.8 27.9 64.8C28.6161 64.8 29.3029 64.5155 29.8092 64.0092C30.3156 63.5028 30.6 62.816 30.6 62.1V42.3ZM42.3 46.8C43.0161 46.8 43.7029 47.0844 44.2092 47.5908C44.7156 48.0971 45 48.7839 45 49.5V62.1C45 62.816 44.7156 63.5028 44.2092 64.0092C43.7029 64.5155 43.0161 64.8 42.3 64.8C41.5839 64.8 40.8972 64.5155 40.3908 64.0092C39.8845 63.5028 39.6 62.816 39.6 62.1V49.5C39.6 48.7839 39.8845 48.0971 40.3908 47.5908C40.8972 47.0844 41.5839 46.8 42.3 46.8ZM59.4 35.1C59.4 34.3839 59.1156 33.6971 58.6092 33.1908C58.1029 32.6844 57.4161 32.4 56.7 32.4C55.9839 32.4 55.2972 32.6844 54.7908 33.1908C54.2845 33.6971 54 34.3839 54 35.1V62.1C54 62.816 54.2845 63.5028 54.7908 64.0092C55.2972 64.5155 55.9839 64.8 56.7 64.8C57.4161 64.8 58.1029 64.5155 58.6092 64.0092C59.1156 63.5028 59.4 62.816 59.4 62.1V35.1Z" fill="url(#paint0_linear_1_2529)"/>
<defs>
<linearGradient id="paint0_linear_1_2529" x1="10.7327" y1="36" x2="64.8" y2="36" gradientUnits="userSpaceOnUse">
<stop stop-color="#6DDCFF"/>
<stop offset="0.890625" stop-color="#7F60F9"/>
</linearGradient>
</defs>
</svg>
