<svg width="61" height="60" viewBox="0 0 61 60" fill="none" xmlns="http://www.w3.org/2000/svg">
<path d="M60.0466 11.92C59.8882 11.7299 59.69 11.5769 59.4659 11.4719C59.2418 11.3669 58.9974 11.3125 58.75 11.3125H12.9062L11.4522 3.29688C11.2874 2.38913 10.8092 1.56805 10.1009 0.976928C9.39254 0.385804 8.49914 0.0621693 7.57656 0.0625003H2.5C2.05245 0.0625003 1.62322 0.24029 1.30676 0.556757C0.99029 0.873225 0.8125 1.30245 0.8125 1.75C0.8125 2.19755 0.99029 2.62678 1.30676 2.94324C1.62322 3.25971 2.05245 3.4375 2.5 3.4375H7.5625C7.69569 3.43533 7.82534 3.4805 7.92834 3.56496C8.03135 3.64943 8.10104 3.76771 8.125 3.89875L15.2997 43.3581C15.5273 44.6169 16.1406 45.7737 17.0547 46.6684C15.9509 47.5513 15.1266 48.7352 14.6816 50.0768C14.2366 51.4184 14.1899 52.8602 14.5473 54.2278C14.9047 55.5953 15.6507 56.83 16.6952 57.7824C17.7396 58.7347 19.0377 59.364 20.4323 59.594C21.827 59.824 23.2584 59.6449 24.5533 59.0783C25.8483 58.5118 26.9513 57.582 27.7288 56.4016C28.5064 55.2213 28.9252 53.8408 28.9346 52.4274C28.9439 51.0139 28.5434 49.6281 27.7816 48.4375H42.4684C41.5939 49.806 41.1999 51.4267 41.3485 53.0439C41.497 54.6612 42.1797 56.1829 43.2889 57.3692C44.3981 58.5555 45.8706 59.3388 47.4743 59.5955C49.0779 59.8523 50.7214 59.5679 52.1455 58.7872C53.5696 58.0065 54.6933 56.774 55.3393 55.284C55.9854 53.7939 56.117 52.1312 55.7135 50.5581C55.31 48.985 54.3943 47.591 53.1108 46.5959C51.8273 45.6008 50.249 45.0613 48.625 45.0625H21.3916C20.7329 45.0626 20.0951 44.8315 19.5893 44.4095C19.0836 43.9876 18.742 43.4015 18.6241 42.7534L17.6116 37.1875H50.9031C52.3522 37.1879 53.7555 36.6796 54.8682 35.7514C55.981 34.8231 56.7327 33.5338 56.9922 32.1081L60.4094 13.3009C60.4535 13.0582 60.4439 12.8088 60.3812 12.5702C60.3185 12.3316 60.2043 12.1097 60.0466 11.92ZM25.5625 52.375C25.5625 53.1538 25.3316 53.915 24.8989 54.5626C24.4662 55.2101 23.8513 55.7148 23.1318 56.0128C22.4123 56.3108 21.6206 56.3888 20.8568 56.2368C20.093 56.0849 19.3914 55.7099 18.8408 55.1592C18.2901 54.6086 17.9151 53.907 17.7632 53.1432C17.6112 52.3794 17.6892 51.5877 17.9872 50.8682C18.2852 50.1487 18.7899 49.5337 19.4374 49.1011C20.085 48.6684 20.8462 48.4375 21.625 48.4375C22.6693 48.4375 23.6708 48.8523 24.4092 49.5908C25.1477 50.3292 25.5625 51.3307 25.5625 52.375ZM52.5625 52.375C52.5625 53.1538 52.3316 53.915 51.8989 54.5626C51.4663 55.2101 50.8513 55.7148 50.1318 56.0128C49.4123 56.3108 48.6206 56.3888 47.8568 56.2368C47.093 56.0849 46.3914 55.7099 45.8408 55.1592C45.2901 54.6086 44.9151 53.907 44.7632 53.1432C44.6112 52.3794 44.6892 51.5877 44.9872 50.8682C45.2852 50.1487 45.7899 49.5337 46.4374 49.1011C47.085 48.6684 47.8462 48.4375 48.625 48.4375C49.6693 48.4375 50.6708 48.8523 51.4092 49.5908C52.1477 50.3292 52.5625 51.3307 52.5625 52.375ZM53.6706 31.5034C53.5527 32.1515 53.2111 32.7376 52.7054 33.1595C52.1996 33.5815 51.5618 33.8126 50.9031 33.8125H16.9984L13.5222 14.6875H56.7278L53.6706 31.5034Z" fill="url(#paint0_linear_1_2536)"/>
<defs>
<linearGradient id="paint0_linear_1_2536" x1="0.8125" y1="29.877" x2="60.4366" y2="29.877" gradientUnits="userSpaceOnUse">
<stop stop-color="#6DDCFF"/>
<stop offset="0.890625" stop-color="#7F60F9"/>
</linearGradient>
</defs>
</svg>
