<svg width="72" height="72" viewBox="0 0 72 72" fill="none" xmlns="http://www.w3.org/2000/svg">
<g clip-path="url(#clip0_1_2537)">
<path d="M36.2835 41.1801C35.2067 41.1882 34.1637 41.5567 33.3207 42.2267C32.4778 42.8968 31.8835 43.8298 31.6326 44.877C31.3818 45.9242 31.4888 47.0252 31.9366 48.0045C32.3845 48.9838 33.1473 49.7849 34.1035 50.2801V56.0001H38.1035V50.4601C39.1362 50.0368 39.99 49.2684 40.5193 48.2859C41.0485 47.3033 41.2204 46.1676 41.0056 45.0724C40.7909 43.9773 40.2027 42.9906 39.3415 42.2807C38.4804 41.5709 37.3995 41.1819 36.2835 41.1801Z" fill="url(#paint0_linear_1_2537)"/>
<path d="M53.8977 29.9678V21.3442C53.9958 16.9758 52.1283 12.7509 48.7038 9.59413C45.2793 6.43736 40.5767 4.60571 35.625 4.5C30.6733 4.60571 25.9707 6.43736 22.5462 9.59413C19.1217 12.7509 17.2542 16.9758 17.3523 21.3442V29.9678H10.5V64.2203C10.5 65.289 10.9813 66.314 11.838 67.0697C12.6947 67.8254 13.8566 68.25 15.0682 68.25H56.1818C57.3934 68.25 58.5553 67.8254 59.412 67.0697C60.2687 66.314 60.75 65.289 60.75 64.2203V29.9678H53.8977ZM21.9205 21.3442C21.822 18.0443 23.2081 14.8442 25.776 12.4431C28.3439 10.042 31.8848 8.63505 35.625 8.52971C39.3652 8.63505 42.9061 10.042 45.474 12.4431C48.0419 14.8442 49.428 18.0443 49.3295 21.3442V29.9678H21.9205V21.3442ZM15.0682 64.2203V33.9975H56.1818V64.2203H15.0682Z" fill="url(#paint1_linear_1_2537)"/>
</g>
<defs>
<linearGradient id="paint0_linear_1_2537" x1="31.5" y1="48.5901" x2="41.0958" y2="48.5901" gradientUnits="userSpaceOnUse">
<stop stop-color="#6DDCFF"/>
<stop offset="0.890625" stop-color="#7F60F9"/>
</linearGradient>
<linearGradient id="paint1_linear_1_2537" x1="10.5" y1="36.375" x2="60.75" y2="36.375" gradientUnits="userSpaceOnUse">
<stop stop-color="#6DDCFF"/>
<stop offset="0.890625" stop-color="#7F60F9"/>
</linearGradient>
<clipPath id="clip0_1_2537">
<rect width="72" height="72" fill="white"/>
</clipPath>
</defs>
</svg>
